<?xml version="1.0" standalone="no"?>
<!DOCTYPE svg PUBLIC "-//W3C//DTD SVG 20010904//EN"
 "http://www.w3.org/TR/2001/REC-SVG-20010904/DTD/svg10.dtd">
<svg version="1.0" xmlns="http://www.w3.org/2000/svg"
 width="355.000000pt" height="355.000000pt" viewBox="0 0 355.000000 355.000000"
 preserveAspectRatio="xMidYMid meet">
<metadata>
Created by potrace 1.11, written by Peter Selinger 2001-2013
</metadata>
<g transform="translate(0.000000,355.000000) scale(0.100000,-0.100000)"
fill="#000000" stroke="none">
<path d="M1120 3406 l0 -143 -47 -18 c-64 -23 -236 -109 -298 -148 -394 -248
-661 -625 -750 -1062 -23 -110 -30 -329 -16 -440 70 -525 386 -966 881 -1229
115 -61 306 -136 348 -136 9 0 12 30 12 118 l0 118 -52 18 c-60 21 -228 103
-291 143 -82 51 -203 152 -282 234 -540 563 -485 1416 123 1922 42 36 109 85
147 109 63 41 207 118 220 118 3 0 5 -58 5 -130 0 -77 4 -130 10 -130 5 0 67
38 137 83 70 46 184 119 253 162 157 98 292 185 304 196 7 6 -680 359 -699
359 -3 0 -5 -65 -5 -144z"/>
<path d="M2288 3293 c-2 -5 -3 -17 -2 -28 0 -11 2 -61 3 -111 l1 -92 63 -22
c196 -72 378 -191 538 -350 201 -200 314 -406 375 -690 27 -125 25 -361 -4
-492 -61 -273 -186 -493 -392 -691 -110 -106 -223 -188 -350 -255 -131 -68
-120 -77 -120 92 0 97 -4 146 -11 146 -11 0 -666 -404 -686 -423 -10 -9 37
-38 209 -127 123 -63 280 -145 350 -181 70 -36 130 -64 133 -61 3 3 5 60 5
127 l0 121 83 33 c475 191 840 570 985 1022 54 167 66 254 66 459 0 151 -4
203 -22 285 -124 568 -536 1016 -1126 1221 -74 25 -93 29 -98 17z"/>
<path d="M1648 2628 l-3 -33 -290 -5 -290 -5 -3 -38 c-3 -32 0 -39 17 -44 12
-3 21 -11 21 -18 0 -6 -31 -79 -69 -161 -37 -82 -79 -171 -91 -199 -13 -27
-61 -133 -107 -235 -72 -158 -83 -190 -78 -220 20 -105 96 -199 203 -248 75
-34 202 -42 288 -17 110 31 185 93 230 190 41 87 38 96 -127 459 -83 182 -162
355 -175 384 -18 39 -21 54 -11 57 7 3 118 4 247 3 l235 -3 3 -660 c1 -363 0
-670 -3 -681 -3 -14 -15 -24 -35 -28 -134 -26 -310 -155 -310 -226 0 -15 932
-9 937 6 7 20 -61 97 -122 139 -49 33 -140 70 -222 91 -10 3 -13 148 -13 684
l0 680 255 0 c140 0 255 -2 255 -3 0 -4 -130 -293 -190 -422 -18 -38 -52 -115
-77 -170 -25 -55 -54 -118 -64 -139 -64 -132 44 -301 230 -361 79 -26 217 -18
293 17 105 48 187 148 202 245 6 42 2 54 -72 213 -112 240 -272 597 -272 606
0 7 7 15 16 18 11 4 14 17 12 43 l-3 38 -292 3 -293 2 0 35 0 35 -114 0 -115
0 -3 -32z m-477 -275 c22 -49 60 -131 84 -183 108 -236 195 -432 195 -441 0
-5 -133 -9 -325 -9 -179 0 -325 2 -325 3 0 4 90 203 164 362 17 39 61 134 97
212 35 79 65 143 67 143 2 0 21 -39 43 -87z m1350 -148 c178 -389 219 -479
219 -482 0 -2 -148 -3 -330 -3 l-329 0 28 63 c43 95 66 146 162 354 48 106 98
215 110 243 12 28 26 49 31 48 5 -2 54 -102 109 -223z"/>
</g>
</svg>
